<?xml version="1.0" encoding="UTF-8" standalone="no"?>
<!-- Created with Inkscape (http://www.inkscape.org/) -->

<svg
   xmlns:dc="http://purl.org/dc/elements/1.1/"
   xmlns:cc="http://creativecommons.org/ns#"
   xmlns:rdf="http://www.w3.org/1999/02/22-rdf-syntax-ns#"
   xmlns:svg="http://www.w3.org/2000/svg"
   xmlns="http://www.w3.org/2000/svg"
   xmlns:sodipodi="http://sodipodi.sourceforge.net/DTD/sodipodi-0.dtd"
   xmlns:inkscape="http://www.inkscape.org/namespaces/inkscape"
   width="320"
   height="320"
   id="svg2"
   version="1.1"
   inkscape:version="0.91 r13725"
   sodipodi:docname="ePSXe64Ubuntu.svg">
  <defs
     id="defs4" />
  <sodipodi:namedview
     id="base"
     pagecolor="#ffffff"
     bordercolor="#666666"
     borderopacity="1.0"
     inkscape:pageopacity="0.0"
     inkscape:pageshadow="2"
     inkscape:zoom="1.4"
     inkscape:cx="105.81905"
     inkscape:cy="158.5331"
     inkscape:document-units="px"
     inkscape:current-layer="layer1"
     showgrid="false"
     fit-margin-left="20"
     fit-margin-top="20"
     fit-margin-bottom="20"
     fit-margin-right="20"
     inkscape:window-width="1366"
     inkscape:window-height="731"
     inkscape:window-x="0"
     inkscape:window-y="0"
     inkscape:window-maximized="1" />
  <metadata
     id="metadata7">
    <rdf:RDF>
      <cc:Work
         rdf:about="">
        <dc:format>image/svg+xml</dc:format>
        <dc:type
           rdf:resource="http://purl.org/dc/dcmitype/StillImage" />
        <dc:title></dc:title>
      </cc:Work>
    </rdf:RDF>
  </metadata>
  <g
     inkscape:groupmode="layer"
     id="layer2"
     inkscape:label="Layer"
     style="display:inline"
     transform="translate(-175.89325,-429.29893)">
    <path
       id="path3049"
       style="display:inline;fill:#ffffff;stroke:#b0afb5;stroke-width:9.74401951;stroke-linecap:butt;stroke-linejoin:miter;stroke-miterlimit:4;stroke-dasharray:none;stroke-opacity:1"
       d="m 402.13246,490.07888 0,-20.46891 c 0,0 -6.02023,-9.63242 19.26493,-9.63242 25.28516,0 22.87703,9.63242 22.87703,9.63242 l 0,22.87703 39.73385,39.73384 c 0,0 0,133.65019 0,156.52723 0,22.87703 -8.42845,31.30539 -28.89736,31.30539 -20.46891,0 -60.20275,-125.22175 -60.20275,-125.22175 -39.33238,0 -78.66487,0 -117.99725,0 0,0 -39.73384,125.22175 -60.20275,125.22175 -20.4689,0 -28.89735,-8.42836 -28.89735,-31.30539 0,-22.87704 0,-156.52723 0,-156.52723 l 39.73384,-39.73384 0,-22.87703 c 0,0 -2.40813,-9.63242 22.87703,-9.63242 25.28517,0 19.26494,9.63242 19.26494,9.63242 l 0,20.46891 c 44.14864,0 88.29719,0 132.44584,0 z"
       inkscape:connector-curvature="0"
       sodipodi:nodetypes="ccscccssccsscccsccc" />
    <circle
       style="display:inline;fill:#ffffff;fill-opacity:1;stroke:#b0afb5;stroke-width:9.74401951;stroke-miterlimit:4;stroke-dasharray:none;stroke-opacity:1"
       id="path3022"
       cx="249.21753"
       cy="541.85321"
       r="62.610886" />
    <circle
       id="path3051"
       style="display:inline;fill:#ffffff;fill-opacity:1;stroke:#b0afb5;stroke-width:9.74401951;stroke-miterlimit:4;stroke-dasharray:none;stroke-opacity:1"
       transform="scale(-1,1)"
       cx="-422.60141"
       cy="541.85321"
       r="62.610886" />
  </g>
  <g
     inkscape:label="Layer 1"
     inkscape:groupmode="layer"
     id="layer1"
     style="display:inline"
     transform="translate(-175.89325,-429.29893)">
    <circle
       style="fill:#e17de1;fill-opacity:1;stroke:#727292;stroke-width:7.49539948;stroke-miterlimit:4;stroke-dasharray:none;stroke-opacity:1"
       id="path3025"
       cx="392.50043"
       cy="541.85321"
       r="14.448667" />
    <circle
       id="path3027"
       style="fill:#e46868;fill-opacity:1;stroke:#727292;stroke-width:7.49539948;stroke-miterlimit:4;stroke-dasharray:none;stroke-opacity:1"
       cx="450.48874"
       cy="541.85321"
       r="14.448667" />
    <circle
       transform="matrix(0,-1,1,0,0,0)"
       id="path3029"
       style="fill:#81dddd;fill-opacity:1;stroke:#727292;stroke-width:7.49539948;stroke-miterlimit:4;stroke-dasharray:none;stroke-opacity:1"
       cx="-570.84747"
       cy="421.49457"
       r="14.448667" />
    <circle
       style="fill:#5dd85d;fill-opacity:1;stroke:#727292;stroke-width:7.49539948;stroke-miterlimit:4;stroke-dasharray:none;stroke-opacity:1"
       id="path3031"
       transform="matrix(0,-1,1,0,0,0)"
       cx="-512.8584"
       cy="421.49457"
       r="14.448667" />
    <path
       style="fill:#7f7e8f;fill-opacity:1;stroke:none"
       d="m 211.59097,532.29608 0,19.49064 23.85529,0 8.05214,-9.74532 -8.05214,-9.74532 z"
       id="path3037"
       inkscape:connector-curvature="0"
       sodipodi:nodetypes="cccccc" />
    <path
       sodipodi:nodetypes="cccccc"
       inkscape:connector-curvature="0"
       id="path3039"
       d="m 287.74749,551.78672 0,-19.49064 -23.8553,0 -8.05217,9.74532 8.05217,9.74532 z"
       style="fill:#7f7e8f;fill-opacity:1;stroke:none" />
    <path
       sodipodi:nodetypes="cccccc"
       inkscape:connector-curvature="0"
       id="path3041"
       d="m 239.92391,580.11966 19.49064,0 0,-23.85529 -9.74532,-8.05218 -9.74532,8.05218 z"
       style="fill:#7f7e8f;fill-opacity:1;stroke:none" />
    <path
       style="fill:#7f7e8f;fill-opacity:1;stroke:none"
       d="m 259.41455,503.96314 -19.49064,0 0,23.85529 9.74532,8.05218 9.74532,-8.05218 z"
       id="path3043"
       inkscape:connector-curvature="0"
       sodipodi:nodetypes="cccccc" />
    <rect
       style="fill:#6c6d72;fill-opacity:1;stroke:none"
       id="rect3045"
       width="14.513059"
       height="11.438527"
       x="313.83688"
       y="570.61517" />
    <rect
       y="570.61517"
       x="342.21231"
       height="11.438527"
       width="14.513059"
       id="rect3056"
       style="fill:#6c6d72;fill-opacity:1;stroke:none" />
  </g>
</svg>
